<?xml version="1.0" encoding="utf-8" standalone="no"?>
<!DOCTYPE svg PUBLIC "-//W3C//DTD SVG 1.1//EN"
  "http://www.w3.org/Graphics/SVG/1.1/DTD/svg11.dtd">
<svg xmlns:xlink="http://www.w3.org/1999/xlink" width="432pt" height="432pt" viewBox="0 0 432 432" xmlns="http://www.w3.org/2000/svg" version="1.1">
 <metadata>
  <rdf:RDF xmlns:dc="http://purl.org/dc/elements/1.1/" xmlns:cc="http://creativecommons.org/ns#" xmlns:rdf="http://www.w3.org/1999/02/22-rdf-syntax-ns#">
   <cc:Work>
    <dc:type rdf:resource="http://purl.org/dc/dcmitype/StillImage"/>
    <dc:date>2022-07-25T16:19:51.859962</dc:date>
    <dc:format>image/svg+xml</dc:format>
    <dc:creator>
     <cc:Agent>
      <dc:title>Matplotlib v3.5.1, https://matplotlib.org/</dc:title>
     </cc:Agent>
    </dc:creator>
   </cc:Work>
  </rdf:RDF>
 </metadata>
 <defs>
  <style type="text/css">*{stroke-linejoin: round; stroke-linecap: butt}</style>
 </defs>
 <g id="figure_1">
  <g id="patch_1">
   <path d="M 0 432 
L 432 432 
L 432 0 
L 0 0 
L 0 432 
z
" style="fill: none"/>
  </g>
  <g id="axes_1">
   <g id="patch_2">
    <path d="M 47.38125 390.84375 
L 421.2 390.84375 
L 421.2 10.8 
L 47.38125 10.8 
z
" style="fill: #ffffff"/>
   </g>
   <g id="PathCollection_1">
    <defs>
     <path id="m039e83b813" d="M 0 3.535534 
C 0.937635 3.535534 1.836992 3.163008 2.5 2.5 
C 3.163008 1.836992 3.535534 0.937635 3.535534 0 
C 3.535534 -0.937635 3.163008 -1.836992 2.5 -2.5 
C 1.836992 -3.163008 0.937635 -3.535534 0 -3.535534 
C -0.937635 -3.535534 -1.836992 -3.163008 -2.5 -2.5 
C -3.163008 -1.836992 -3.535534 -0.937635 -3.535534 0 
C -3.535534 0.937635 -3.163008 1.836992 -2.5 2.5 
C -1.836992 3.163008 -0.937635 3.535534 0 3.535534 
z
" style="stroke: #1f77b4"/>
    </defs>
    <g clip-path="url(#p95e6a04643)">
     <use xlink:href="#m039e83b813" x="246.75125" y="154.807977" style="fill: #1f77b4; stroke: #1f77b4"/>
     <use xlink:href="#m039e83b813" x="403.399107" y="56.563601" style="fill: #1f77b4; stroke: #1f77b4"/>
     <use xlink:href="#m039e83b813" x="367.797321" y="90.218562" style="fill: #1f77b4; stroke: #1f77b4"/>
     <use xlink:href="#m039e83b813" x="385.598214" y="28.897321" style="fill: #1f77b4; stroke: #1f77b4"/>
     <use xlink:href="#m039e83b813" x="399.838929" y="51.994015" style="fill: #1f77b4; stroke: #1f77b4"/>
     <use xlink:href="#m039e83b813" x="399.838929" y="50.836664" style="fill: #1f77b4; stroke: #1f77b4"/>
     <use xlink:href="#m039e83b813" x="382.038036" y="33.163964" style="fill: #1f77b4; stroke: #1f77b4"/>
     <use xlink:href="#m039e83b813" x="392.718571" y="28.897321" style="fill: #1f77b4; stroke: #1f77b4"/>
     <use xlink:href="#m039e83b813" x="396.27875" y="50.836664" style="fill: #1f77b4; stroke: #1f77b4"/>
     <use xlink:href="#m039e83b813" x="385.598214" y="33.163964" style="fill: #1f77b4; stroke: #1f77b4"/>
     <use xlink:href="#m039e83b813" x="396.27875" y="49.438008" style="fill: #1f77b4; stroke: #1f77b4"/>
     <use xlink:href="#m039e83b813" x="371.3575" y="73.446238" style="fill: #1f77b4; stroke: #1f77b4"/>
     <use xlink:href="#m039e83b813" x="382.038036" y="38.803359" style="fill: #1f77b4; stroke: #1f77b4"/>
     <use xlink:href="#m039e83b813" x="396.27875" y="47.692274" style="fill: #1f77b4; stroke: #1f77b4"/>
     <use xlink:href="#m039e83b813" x="389.158393" y="33.163964" style="fill: #1f77b4; stroke: #1f77b4"/>
     <use xlink:href="#m039e83b813" x="392.718571" y="49.438008" style="fill: #1f77b4; stroke: #1f77b4"/>
     <use xlink:href="#m039e83b813" x="385.598214" y="38.803359" style="fill: #1f77b4; stroke: #1f77b4"/>
     <use xlink:href="#m039e83b813" x="382.038036" y="42.638428" style="fill: #1f77b4; stroke: #1f77b4"/>
     <use xlink:href="#m039e83b813" x="392.718571" y="47.692274" style="fill: #1f77b4; stroke: #1f77b4"/>
     <use xlink:href="#m039e83b813" x="392.718571" y="47.692274" style="fill: #1f77b4; stroke: #1f77b4"/>
     <use xlink:href="#m039e83b813" x="389.158393" y="49.438008" style="fill: #1f77b4; stroke: #1f77b4"/>
     <use xlink:href="#m039e83b813" x="382.038036" y="45.837208" style="fill: #1f77b4; stroke: #1f77b4"/>
     <use xlink:href="#m039e83b813" x="389.158393" y="38.803359" style="fill: #1f77b4; stroke: #1f77b4"/>
     <use xlink:href="#m039e83b813" x="385.598214" y="42.638428" style="fill: #1f77b4; stroke: #1f77b4"/>
     <use xlink:href="#m039e83b813" x="389.158393" y="45.482038" style="fill: #1f77b4; stroke: #1f77b4"/>
     <use xlink:href="#m039e83b813" x="385.598214" y="45.482038" style="fill: #1f77b4; stroke: #1f77b4"/>
     <use xlink:href="#m039e83b813" x="385.598214" y="45.837208" style="fill: #1f77b4; stroke: #1f77b4"/>
     <use xlink:href="#m039e83b813" x="360.676964" y="73.446238" style="fill: #1f77b4; stroke: #1f77b4"/>
     <use xlink:href="#m039e83b813" x="389.158393" y="42.638428" style="fill: #1f77b4; stroke: #1f77b4"/>
     <use xlink:href="#m039e83b813" x="399.838929" y="32.202862" style="fill: #1f77b4; stroke: #1f77b4"/>
     <use xlink:href="#m039e83b813" x="204.705541" y="169.02029" style="fill: #1f77b4; stroke: #1f77b4"/>
     <use xlink:href="#m039e83b813" x="313.5402" y="128.394684" style="fill: #1f77b4; stroke: #1f77b4"/>
     <use xlink:href="#m039e83b813" x="351.491704" y="69.377057" style="fill: #1f77b4; stroke: #1f77b4"/>
     <use xlink:href="#m039e83b813" x="376.199343" y="73.24066" style="fill: #1f77b4; stroke: #1f77b4"/>
     <use xlink:href="#m039e83b813" x="372.389952" y="38.113157" style="fill: #1f77b4; stroke: #1f77b4"/>
     <use xlink:href="#m039e83b813" x="365.554409" y="37.772114" style="fill: #1f77b4; stroke: #1f77b4"/>
     <use xlink:href="#m039e83b813" x="347.112684" y="41.423507" style="fill: #1f77b4; stroke: #1f77b4"/>
     <use xlink:href="#m039e83b813" x="232.79535" y="132.272842" style="fill: #1f77b4; stroke: #1f77b4"/>
     <use xlink:href="#m039e83b813" x="249.528189" y="126.872813" style="fill: #1f77b4; stroke: #1f77b4"/>
     <use xlink:href="#m039e83b813" x="262.70085" y="123.615728" style="fill: #1f77b4; stroke: #1f77b4"/>
     <use xlink:href="#m039e83b813" x="272.66935" y="121.270351" style="fill: #1f77b4; stroke: #1f77b4"/>
     <use xlink:href="#m039e83b813" x="290.790659" y="119.504261" style="fill: #1f77b4; stroke: #1f77b4"/>
     <use xlink:href="#m039e83b813" x="349.4268" y="87.565968" style="fill: #1f77b4; stroke: #1f77b4"/>
     <use xlink:href="#m039e83b813" x="344.300143" y="99.582353" style="fill: #1f77b4; stroke: #1f77b4"/>
     <use xlink:href="#m039e83b813" x="263.6977" y="191.975853" style="fill: #1f77b4; stroke: #1f77b4"/>
    </g>
   </g>
   <g id="PathCollection_2">
    <defs>
     <path id="m06552699f3" d="M -0 3.535534 
L 3.535534 -3.535534 
L -3.535534 -3.535534 
z
" style="stroke: #ff7f0e"/>
    </defs>
    <g clip-path="url(#p95e6a04643)">
     <use xlink:href="#m06552699f3" x="111.464464" y="267.735347" style="fill: #ff7f0e; stroke: #ff7f0e"/>
     <use xlink:href="#m06552699f3" x="257.431786" y="210.625371" style="fill: #ff7f0e; stroke: #ff7f0e"/>
     <use xlink:href="#m06552699f3" x="328.635357" y="123.263796" style="fill: #ff7f0e; stroke: #ff7f0e"/>
     <use xlink:href="#m06552699f3" x="367.797321" y="159.835694" style="fill: #ff7f0e; stroke: #ff7f0e"/>
     <use xlink:href="#m06552699f3" x="328.635357" y="77.996557" style="fill: #ff7f0e; stroke: #ff7f0e"/>
     <use xlink:href="#m06552699f3" x="349.996429" y="80.396025" style="fill: #ff7f0e; stroke: #ff7f0e"/>
     <use xlink:href="#m06552699f3" x="321.515" y="69.570697" style="fill: #ff7f0e; stroke: #ff7f0e"/>
     <use xlink:href="#m06552699f3" x="243.191071" y="169.806604" style="fill: #ff7f0e; stroke: #ff7f0e"/>
     <use xlink:href="#m06552699f3" x="268.112321" y="159.258963" style="fill: #ff7f0e; stroke: #ff7f0e"/>
     <use xlink:href="#m06552699f3" x="278.792857" y="152.053475" style="fill: #ff7f0e; stroke: #ff7f0e"/>
     <use xlink:href="#m06552699f3" x="285.913214" y="146.730468" style="fill: #ff7f0e; stroke: #ff7f0e"/>
     <use xlink:href="#m06552699f3" x="296.59375" y="142.556953" style="fill: #ff7f0e; stroke: #ff7f0e"/>
     <use xlink:href="#m06552699f3" x="332.195536" y="136.459944" style="fill: #ff7f0e; stroke: #ff7f0e"/>
     <use xlink:href="#m06552699f3" x="335.755714" y="134.181376" style="fill: #ff7f0e; stroke: #ff7f0e"/>
     <use xlink:href="#m06552699f3" x="264.552143" y="159.987665" style="fill: #ff7f0e; stroke: #ff7f0e"/>
     <use xlink:href="#m06552699f3" x="239.630893" y="181.608636" style="fill: #ff7f0e; stroke: #ff7f0e"/>
     <use xlink:href="#m06552699f3" x="168.427321" y="268.05618" style="fill: #ff7f0e; stroke: #ff7f0e"/>
    </g>
   </g>
   <g id="PathCollection_3">
    <defs>
     <path id="m7bfdb49d2d" d="M 0 -3.535534 
L -3.535534 3.535534 
L 3.535534 3.535534 
z
" style="stroke: #2ca02c"/>
    </defs>
    <g clip-path="url(#p95e6a04643)">
     <use xlink:href="#m7bfdb49d2d" x="289.473393" y="271.321997" style="fill: #2ca02c; stroke: #2ca02c"/>
     <use xlink:href="#m7bfdb49d2d" x="403.399107" y="64.115271" style="fill: #2ca02c; stroke: #2ca02c"/>
     <use xlink:href="#m7bfdb49d2d" x="399.838929" y="64.115271" style="fill: #2ca02c; stroke: #2ca02c"/>
    </g>
   </g>
   <g id="PathCollection_4">
    <defs>
     <path id="m19d6834ea1" d="M -3.535534 -0 
L 3.535534 3.535534 
L 3.535534 -3.535534 
z
" style="stroke: #d62728"/>
    </defs>
    <g clip-path="url(#p95e6a04643)">
     <use xlink:href="#m19d6834ea1" x="360.676964" y="28.897321" style="fill: #d62728; stroke: #d62728"/>
    </g>
   </g>
   <g id="PathCollection_5">
    <defs>
     <path id="m6aab09a2fd" d="M 3.535534 0 
L -3.535534 -3.535534 
L -3.535534 3.535534 
z
" style="stroke: #9467bd"/>
    </defs>
    <g clip-path="url(#p95e6a04643)">
     <use xlink:href="#m6aab09a2fd" x="399.838929" y="109.285685" style="fill: #9467bd; stroke: #9467bd"/>
     <use xlink:href="#m6aab09a2fd" x="401.975036" y="68.540328" style="fill: #9467bd; stroke: #9467bd"/>
     <use xlink:href="#m6aab09a2fd" x="393.074589" y="75.081283" style="fill: #9467bd; stroke: #9467bd"/>
     <use xlink:href="#m6aab09a2fd" x="391.650518" y="68.540328" style="fill: #9467bd; stroke: #9467bd"/>
     <use xlink:href="#m6aab09a2fd" x="367.797321" y="83.00361" style="fill: #9467bd; stroke: #9467bd"/>
     <use xlink:href="#m6aab09a2fd" x="403.399107" y="44.921481" style="fill: #9467bd; stroke: #9467bd"/>
    </g>
   </g>
   <g id="PathCollection_6">
    <defs>
     <path id="m93103fec4a" d="M 0 0 
L 0 3.535534 
M 0 0 
L 2.828427 -1.767767 
M 0 0 
L -2.828427 -1.767767 
" style="stroke: #c49c94; stroke-width: 1.5"/>
    </defs>
    <g clip-path="url(#p95e6a04643)">
     <use xlink:href="#m93103fec4a" x="61.621964" y="356.119639" style="fill: #c49c94; stroke: #c49c94; stroke-width: 1.5"/>
     <use xlink:href="#m93103fec4a" x="97.22375" y="312.437211" style="fill: #c49c94; stroke: #c49c94; stroke-width: 1.5"/>
     <use xlink:href="#m93103fec4a" x="68.742321" y="223.600092" style="fill: #c49c94; stroke: #c49c94; stroke-width: 1.5"/>
     <use xlink:href="#m93103fec4a" x="115.024643" y="283.325846" style="fill: #c49c94; stroke: #c49c94; stroke-width: 1.5"/>
     <use xlink:href="#m93103fec4a" x="186.228214" y="197.296713" style="fill: #c49c94; stroke: #c49c94; stroke-width: 1.5"/>
     <use xlink:href="#m93103fec4a" x="75.862679" y="377.858514" style="fill: #c49c94; stroke: #c49c94; stroke-width: 1.5"/>
     <use xlink:href="#m93103fec4a" x="86.543214" y="348.904283" style="fill: #c49c94; stroke: #c49c94; stroke-width: 1.5"/>
     <use xlink:href="#m93103fec4a" x="93.663571" y="325.319993" style="fill: #c49c94; stroke: #c49c94; stroke-width: 1.5"/>
     <use xlink:href="#m93103fec4a" x="104.344107" y="305.786957" style="fill: #c49c94; stroke: #c49c94; stroke-width: 1.5"/>
     <use xlink:href="#m93103fec4a" x="107.904286" y="289.418678" style="fill: #c49c94; stroke: #c49c94; stroke-width: 1.5"/>
     <use xlink:href="#m93103fec4a" x="125.705179" y="263.527478" style="fill: #c49c94; stroke: #c49c94; stroke-width: 1.5"/>
     <use xlink:href="#m93103fec4a" x="132.825536" y="253.082633" style="fill: #c49c94; stroke: #c49c94; stroke-width: 1.5"/>
     <use xlink:href="#m93103fec4a" x="232.510536" y="276.155037" style="fill: #c49c94; stroke: #c49c94; stroke-width: 1.5"/>
     <use xlink:href="#m93103fec4a" x="228.950357" y="293.41892" style="fill: #c49c94; stroke: #c49c94; stroke-width: 1.5"/>
    </g>
   </g>
   <g id="PathCollection_7">
    <defs>
     <path id="m605e9f1c72" d="M 0 0 
L 0 -3.535534 
M 0 0 
L -2.828427 1.767767 
M 0 0 
L 2.828427 1.767767 
" style="stroke: #f7b6d2; stroke-width: 1.5"/>
    </defs>
    <g clip-path="url(#p95e6a04643)">
     <use xlink:href="#m605e9f1c72" x="374.917679" y="45.373029" style="fill: #f7b6d2; stroke: #f7b6d2; stroke-width: 1.5"/>
     <use xlink:href="#m605e9f1c72" x="296.59375" y="149.001845" style="fill: #f7b6d2; stroke: #f7b6d2; stroke-width: 1.5"/>
     <use xlink:href="#m605e9f1c72" x="392.718571" y="45.373029" style="fill: #f7b6d2; stroke: #f7b6d2; stroke-width: 1.5"/>
     <use xlink:href="#m605e9f1c72" x="207.589286" y="266.238989" style="fill: #f7b6d2; stroke: #f7b6d2; stroke-width: 1.5"/>
     <use xlink:href="#m605e9f1c72" x="239.630893" y="231.28245" style="fill: #f7b6d2; stroke: #f7b6d2; stroke-width: 1.5"/>
     <use xlink:href="#m605e9f1c72" x="275.232679" y="151.510916" style="fill: #f7b6d2; stroke: #f7b6d2; stroke-width: 1.5"/>
     <use xlink:href="#m605e9f1c72" x="289.473393" y="133.272193" style="fill: #f7b6d2; stroke: #f7b6d2; stroke-width: 1.5"/>
     <use xlink:href="#m605e9f1c72" x="396.27875" y="103.747208" style="fill: #f7b6d2; stroke: #f7b6d2; stroke-width: 1.5"/>
     <use xlink:href="#m605e9f1c72" x="278.792857" y="214.64511" style="fill: #f7b6d2; stroke: #f7b6d2; stroke-width: 1.5"/>
     <use xlink:href="#m605e9f1c72" x="325.075179" y="201.796591" style="fill: #f7b6d2; stroke: #f7b6d2; stroke-width: 1.5"/>
     <use xlink:href="#m605e9f1c72" x="349.996429" y="191.722913" style="fill: #f7b6d2; stroke: #f7b6d2; stroke-width: 1.5"/>
     <use xlink:href="#m605e9f1c72" x="367.797321" y="183.589443" style="fill: #f7b6d2; stroke: #f7b6d2; stroke-width: 1.5"/>
     <use xlink:href="#m605e9f1c72" x="378.477857" y="176.910144" style="fill: #f7b6d2; stroke: #f7b6d2; stroke-width: 1.5"/>
     <use xlink:href="#m605e9f1c72" x="389.158393" y="166.681823" style="fill: #f7b6d2; stroke: #f7b6d2; stroke-width: 1.5"/>
     <use xlink:href="#m605e9f1c72" x="389.158393" y="162.651216" style="fill: #f7b6d2; stroke: #f7b6d2; stroke-width: 1.5"/>
     <use xlink:href="#m605e9f1c72" x="275.232679" y="196.822171" style="fill: #f7b6d2; stroke: #f7b6d2; stroke-width: 1.5"/>
     <use xlink:href="#m605e9f1c72" x="189.788393" y="208.86689" style="fill: #f7b6d2; stroke: #f7b6d2; stroke-width: 1.5"/>
     <use xlink:href="#m605e9f1c72" x="125.705179" y="253.330284" style="fill: #f7b6d2; stroke: #f7b6d2; stroke-width: 1.5"/>
    </g>
   </g>
   <g id="PathCollection_8">
    <defs>
     <path id="m137108bcda" d="M 0 0 
L -3.535534 -0 
M 0 0 
L 1.767767 2.828427 
M 0 0 
L 1.767767 -2.828427 
" style="stroke: #c7c7c7; stroke-width: 1.5"/>
    </defs>
    <g clip-path="url(#p95e6a04643)">
     <use xlink:href="#m137108bcda" x="332.195536" y="59.32284" style="fill: #c7c7c7; stroke: #c7c7c7; stroke-width: 1.5"/>
    </g>
   </g>
   <g id="PathCollection_9">
    <defs>
     <path id="m0111b96231" d="M 0 0 
L 3.535534 0 
M 0 0 
L -1.767767 -2.828427 
M 0 0 
L -1.767767 2.828427 
" style="stroke: #dbdb8d; stroke-width: 1.5"/>
    </defs>
    <g clip-path="url(#p95e6a04643)">
     <use xlink:href="#m0111b96231" x="271.6725" y="171.980272" style="fill: #dbdb8d; stroke: #dbdb8d; stroke-width: 1.5"/>
     <use xlink:href="#m0111b96231" x="310.834464" y="143.588284" style="fill: #dbdb8d; stroke: #dbdb8d; stroke-width: 1.5"/>
     <use xlink:href="#m0111b96231" x="371.3575" y="88.37542" style="fill: #dbdb8d; stroke: #dbdb8d; stroke-width: 1.5"/>
     <use xlink:href="#m0111b96231" x="360.676964" y="64.282612" style="fill: #dbdb8d; stroke: #dbdb8d; stroke-width: 1.5"/>
     <use xlink:href="#m0111b96231" x="399.838929" y="64.784806" style="fill: #dbdb8d; stroke: #dbdb8d; stroke-width: 1.5"/>
     <use xlink:href="#m0111b96231" x="332.195536" y="166.311585" style="fill: #dbdb8d; stroke: #dbdb8d; stroke-width: 1.5"/>
     <use xlink:href="#m0111b96231" x="371.3575" y="158.075905" style="fill: #dbdb8d; stroke: #dbdb8d; stroke-width: 1.5"/>
     <use xlink:href="#m0111b96231" x="382.038036" y="151.937429" style="fill: #dbdb8d; stroke: #dbdb8d; stroke-width: 1.5"/>
     <use xlink:href="#m0111b96231" x="389.158393" y="147.206789" style="fill: #dbdb8d; stroke: #dbdb8d; stroke-width: 1.5"/>
     <use xlink:href="#m0111b96231" x="392.718571" y="143.446798" style="fill: #dbdb8d; stroke: #dbdb8d; stroke-width: 1.5"/>
     <use xlink:href="#m0111b96231" x="396.27875" y="137.78713" style="fill: #dbdb8d; stroke: #dbdb8d; stroke-width: 1.5"/>
     <use xlink:href="#m0111b96231" x="392.718571" y="135.606081" style="fill: #dbdb8d; stroke: #dbdb8d; stroke-width: 1.5"/>
     <use xlink:href="#m0111b96231" x="346.43625" y="115.838595" style="fill: #dbdb8d; stroke: #dbdb8d; stroke-width: 1.5"/>
     <use xlink:href="#m0111b96231" x="293.033571" y="126.427174" style="fill: #dbdb8d; stroke: #dbdb8d; stroke-width: 1.5"/>
     <use xlink:href="#m0111b96231" x="139.945893" y="192.70524" style="fill: #dbdb8d; stroke: #dbdb8d; stroke-width: 1.5"/>
    </g>
   </g>
   <g id="matplotlib.axis_1">
    <g id="xtick_1">
     <g id="line2d_1">
      <defs>
       <path id="m6a8724cb7d" d="M 0 0 
L 0 3.5 
" style="stroke: #000000; stroke-width: 0.8"/>
      </defs>
      <g>
       <use xlink:href="#m6a8724cb7d" x="47.38125" y="390.84375" style="stroke: #000000; stroke-width: 0.8"/>
      </g>
     </g>
     <g id="text_1">
      <!-- 0.0 -->
      <g transform="translate(39.429688 405.442187)scale(0.1 -0.1)">
       <defs>
        <path id="DejaVuSans-30" d="M 2034 4250 
Q 1547 4250 1301 3770 
Q 1056 3291 1056 2328 
Q 1056 1369 1301 889 
Q 1547 409 2034 409 
Q 2525 409 2770 889 
Q 3016 1369 3016 2328 
Q 3016 3291 2770 3770 
Q 2525 4250 2034 4250 
z
M 2034 4750 
Q 2819 4750 3233 4129 
Q 3647 3509 3647 2328 
Q 3647 1150 3233 529 
Q 2819 -91 2034 -91 
Q 1250 -91 836 529 
Q 422 1150 422 2328 
Q 422 3509 836 4129 
Q 1250 4750 2034 4750 
z
" transform="scale(0.015625)"/>
        <path id="DejaVuSans-2e" d="M 684 794 
L 1344 794 
L 1344 0 
L 684 0 
L 684 794 
z
" transform="scale(0.015625)"/>
       </defs>
       <use xlink:href="#DejaVuSans-30"/>
       <use xlink:href="#DejaVuSans-2e" x="63.623047"/>
       <use xlink:href="#DejaVuSans-30" x="95.410156"/>
      </g>
     </g>
    </g>
    <g id="xtick_2">
     <g id="line2d_2">
      <g>
       <use xlink:href="#m6a8724cb7d" x="118.584821" y="390.84375" style="stroke: #000000; stroke-width: 0.8"/>
      </g>
     </g>
     <g id="text_2">
      <!-- 0.2 -->
      <g transform="translate(110.633259 405.442187)scale(0.1 -0.1)">
       <defs>
        <path id="DejaVuSans-32" d="M 1228 531 
L 3431 531 
L 3431 0 
L 469 0 
L 469 531 
Q 828 903 1448 1529 
Q 2069 2156 2228 2338 
Q 2531 2678 2651 2914 
Q 2772 3150 2772 3378 
Q 2772 3750 2511 3984 
Q 2250 4219 1831 4219 
Q 1534 4219 1204 4116 
Q 875 4013 500 3803 
L 500 4441 
Q 881 4594 1212 4672 
Q 1544 4750 1819 4750 
Q 2544 4750 2975 4387 
Q 3406 4025 3406 3419 
Q 3406 3131 3298 2873 
Q 3191 2616 2906 2266 
Q 2828 2175 2409 1742 
Q 1991 1309 1228 531 
z
" transform="scale(0.015625)"/>
       </defs>
       <use xlink:href="#DejaVuSans-30"/>
       <use xlink:href="#DejaVuSans-2e" x="63.623047"/>
       <use xlink:href="#DejaVuSans-32" x="95.410156"/>
      </g>
     </g>
    </g>
    <g id="xtick_3">
     <g id="line2d_3">
      <g>
       <use xlink:href="#m6a8724cb7d" x="189.788393" y="390.84375" style="stroke: #000000; stroke-width: 0.8"/>
      </g>
     </g>
     <g id="text_3">
      <!-- 0.4 -->
      <g transform="translate(181.83683 405.442187)scale(0.1 -0.1)">
       <defs>
        <path id="DejaVuSans-34" d="M 2419 4116 
L 825 1625 
L 2419 1625 
L 2419 4116 
z
M 2253 4666 
L 3047 4666 
L 3047 1625 
L 3713 1625 
L 3713 1100 
L 3047 1100 
L 3047 0 
L 2419 0 
L 2419 1100 
L 313 1100 
L 313 1709 
L 2253 4666 
z
" transform="scale(0.015625)"/>
       </defs>
       <use xlink:href="#DejaVuSans-30"/>
       <use xlink:href="#DejaVuSans-2e" x="63.623047"/>
       <use xlink:href="#DejaVuSans-34" x="95.410156"/>
      </g>
     </g>
    </g>
    <g id="xtick_4">
     <g id="line2d_4">
      <g>
       <use xlink:href="#m6a8724cb7d" x="260.991964" y="390.84375" style="stroke: #000000; stroke-width: 0.8"/>
      </g>
     </g>
     <g id="text_4">
      <!-- 0.6 -->
      <g transform="translate(253.040402 405.442187)scale(0.1 -0.1)">
       <defs>
        <path id="DejaVuSans-36" d="M 2113 2584 
Q 1688 2584 1439 2293 
Q 1191 2003 1191 1497 
Q 1191 994 1439 701 
Q 1688 409 2113 409 
Q 2538 409 2786 701 
Q 3034 994 3034 1497 
Q 3034 2003 2786 2293 
Q 2538 2584 2113 2584 
z
M 3366 4563 
L 3366 3988 
Q 3128 4100 2886 4159 
Q 2644 4219 2406 4219 
Q 1781 4219 1451 3797 
Q 1122 3375 1075 2522 
Q 1259 2794 1537 2939 
Q 1816 3084 2150 3084 
Q 2853 3084 3261 2657 
Q 3669 2231 3669 1497 
Q 3669 778 3244 343 
Q 2819 -91 2113 -91 
Q 1303 -91 875 529 
Q 447 1150 447 2328 
Q 447 3434 972 4092 
Q 1497 4750 2381 4750 
Q 2619 4750 2861 4703 
Q 3103 4656 3366 4563 
z
" transform="scale(0.015625)"/>
       </defs>
       <use xlink:href="#DejaVuSans-30"/>
       <use xlink:href="#DejaVuSans-2e" x="63.623047"/>
       <use xlink:href="#DejaVuSans-36" x="95.410156"/>
      </g>
     </g>
    </g>
    <g id="xtick_5">
     <g id="line2d_5">
      <g>
       <use xlink:href="#m6a8724cb7d" x="332.195536" y="390.84375" style="stroke: #000000; stroke-width: 0.8"/>
      </g>
     </g>
     <g id="text_5">
      <!-- 0.8 -->
      <g transform="translate(324.243973 405.442187)scale(0.1 -0.1)">
       <defs>
        <path id="DejaVuSans-38" d="M 2034 2216 
Q 1584 2216 1326 1975 
Q 1069 1734 1069 1313 
Q 1069 891 1326 650 
Q 1584 409 2034 409 
Q 2484 409 2743 651 
Q 3003 894 3003 1313 
Q 3003 1734 2745 1975 
Q 2488 2216 2034 2216 
z
M 1403 2484 
Q 997 2584 770 2862 
Q 544 3141 544 3541 
Q 544 4100 942 4425 
Q 1341 4750 2034 4750 
Q 2731 4750 3128 4425 
Q 3525 4100 3525 3541 
Q 3525 3141 3298 2862 
Q 3072 2584 2669 2484 
Q 3125 2378 3379 2068 
Q 3634 1759 3634 1313 
Q 3634 634 3220 271 
Q 2806 -91 2034 -91 
Q 1263 -91 848 271 
Q 434 634 434 1313 
Q 434 1759 690 2068 
Q 947 2378 1403 2484 
z
M 1172 3481 
Q 1172 3119 1398 2916 
Q 1625 2713 2034 2713 
Q 2441 2713 2670 2916 
Q 2900 3119 2900 3481 
Q 2900 3844 2670 4047 
Q 2441 4250 2034 4250 
Q 1625 4250 1398 4047 
Q 1172 3844 1172 3481 
z
" transform="scale(0.015625)"/>
       </defs>
       <use xlink:href="#DejaVuSans-30"/>
       <use xlink:href="#DejaVuSans-2e" x="63.623047"/>
       <use xlink:href="#DejaVuSans-38" x="95.410156"/>
      </g>
     </g>
    </g>
    <g id="xtick_6">
     <g id="line2d_6">
      <g>
       <use xlink:href="#m6a8724cb7d" x="403.399107" y="390.84375" style="stroke: #000000; stroke-width: 0.8"/>
      </g>
     </g>
     <g id="text_6">
      <!-- 1.0 -->
      <g transform="translate(395.447545 405.442187)scale(0.1 -0.1)">
       <defs>
        <path id="DejaVuSans-31" d="M 794 531 
L 1825 531 
L 1825 4091 
L 703 3866 
L 703 4441 
L 1819 4666 
L 2450 4666 
L 2450 531 
L 3481 531 
L 3481 0 
L 794 0 
L 794 531 
z
" transform="scale(0.015625)"/>
       </defs>
       <use xlink:href="#DejaVuSans-31"/>
       <use xlink:href="#DejaVuSans-2e" x="63.623047"/>
       <use xlink:href="#DejaVuSans-30" x="95.410156"/>
      </g>
     </g>
    </g>
    <g id="text_7">
     <!-- Measured rejection (-) -->
     <g transform="translate(179.173438 419.120313)scale(0.1 -0.1)">
      <defs>
       <path id="DejaVuSans-4d" d="M 628 4666 
L 1569 4666 
L 2759 1491 
L 3956 4666 
L 4897 4666 
L 4897 0 
L 4281 0 
L 4281 4097 
L 3078 897 
L 2444 897 
L 1241 4097 
L 1241 0 
L 628 0 
L 628 4666 
z
" transform="scale(0.015625)"/>
       <path id="DejaVuSans-65" d="M 3597 1894 
L 3597 1613 
L 953 1613 
Q 991 1019 1311 708 
Q 1631 397 2203 397 
Q 2534 397 2845 478 
Q 3156 559 3463 722 
L 3463 178 
Q 3153 47 2828 -22 
Q 2503 -91 2169 -91 
Q 1331 -91 842 396 
Q 353 884 353 1716 
Q 353 2575 817 3079 
Q 1281 3584 2069 3584 
Q 2775 3584 3186 3129 
Q 3597 2675 3597 1894 
z
M 3022 2063 
Q 3016 2534 2758 2815 
Q 2500 3097 2075 3097 
Q 1594 3097 1305 2825 
Q 1016 2553 972 2059 
L 3022 2063 
z
" transform="scale(0.015625)"/>
       <path id="DejaVuSans-61" d="M 2194 1759 
Q 1497 1759 1228 1600 
Q 959 1441 959 1056 
Q 959 750 1161 570 
Q 1363 391 1709 391 
Q 2188 391 2477 730 
Q 2766 1069 2766 1631 
L 2766 1759 
L 2194 1759 
z
M 3341 1997 
L 3341 0 
L 2766 0 
L 2766 531 
Q 2569 213 2275 61 
Q 1981 -91 1556 -91 
Q 1019 -91 701 211 
Q 384 513 384 1019 
Q 384 1609 779 1909 
Q 1175 2209 1959 2209 
L 2766 2209 
L 2766 2266 
Q 2766 2663 2505 2880 
Q 2244 3097 1772 3097 
Q 1472 3097 1187 3025 
Q 903 2953 641 2809 
L 641 3341 
Q 956 3463 1253 3523 
Q 1550 3584 1831 3584 
Q 2591 3584 2966 3190 
Q 3341 2797 3341 1997 
z
" transform="scale(0.015625)"/>
       <path id="DejaVuSans-73" d="M 2834 3397 
L 2834 2853 
Q 2591 2978 2328 3040 
Q 2066 3103 1784 3103 
Q 1356 3103 1142 2972 
Q 928 2841 928 2578 
Q 928 2378 1081 2264 
Q 1234 2150 1697 2047 
L 1894 2003 
Q 2506 1872 2764 1633 
Q 3022 1394 3022 966 
Q 3022 478 2636 193 
Q 2250 -91 1575 -91 
Q 1294 -91 989 -36 
Q 684 19 347 128 
L 347 722 
Q 666 556 975 473 
Q 1284 391 1588 391 
Q 1994 391 2212 530 
Q 2431 669 2431 922 
Q 2431 1156 2273 1281 
Q 2116 1406 1581 1522 
L 1381 1569 
Q 847 1681 609 1914 
Q 372 2147 372 2553 
Q 372 3047 722 3315 
Q 1072 3584 1716 3584 
Q 2034 3584 2315 3537 
Q 2597 3491 2834 3397 
z
" transform="scale(0.015625)"/>
       <path id="DejaVuSans-75" d="M 544 1381 
L 544 3500 
L 1119 3500 
L 1119 1403 
Q 1119 906 1312 657 
Q 1506 409 1894 409 
Q 2359 409 2629 706 
Q 2900 1003 2900 1516 
L 2900 3500 
L 3475 3500 
L 3475 0 
L 2900 0 
L 2900 538 
Q 2691 219 2414 64 
Q 2138 -91 1772 -91 
Q 1169 -91 856 284 
Q 544 659 544 1381 
z
M 1991 3584 
L 1991 3584 
z
" transform="scale(0.015625)"/>
       <path id="DejaVuSans-72" d="M 2631 2963 
Q 2534 3019 2420 3045 
Q 2306 3072 2169 3072 
Q 1681 3072 1420 2755 
Q 1159 2438 1159 1844 
L 1159 0 
L 581 0 
L 581 3500 
L 1159 3500 
L 1159 2956 
Q 1341 3275 1631 3429 
Q 1922 3584 2338 3584 
Q 2397 3584 2469 3576 
Q 2541 3569 2628 3553 
L 2631 2963 
z
" transform="scale(0.015625)"/>
       <path id="DejaVuSans-64" d="M 2906 2969 
L 2906 4863 
L 3481 4863 
L 3481 0 
L 2906 0 
L 2906 525 
Q 2725 213 2448 61 
Q 2172 -91 1784 -91 
Q 1150 -91 751 415 
Q 353 922 353 1747 
Q 353 2572 751 3078 
Q 1150 3584 1784 3584 
Q 2172 3584 2448 3432 
Q 2725 3281 2906 2969 
z
M 947 1747 
Q 947 1113 1208 752 
Q 1469 391 1925 391 
Q 2381 391 2643 752 
Q 2906 1113 2906 1747 
Q 2906 2381 2643 2742 
Q 2381 3103 1925 3103 
Q 1469 3103 1208 2742 
Q 947 2381 947 1747 
z
" transform="scale(0.015625)"/>
       <path id="DejaVuSans-20" transform="scale(0.015625)"/>
       <path id="DejaVuSans-6a" d="M 603 3500 
L 1178 3500 
L 1178 -63 
Q 1178 -731 923 -1031 
Q 669 -1331 103 -1331 
L -116 -1331 
L -116 -844 
L 38 -844 
Q 366 -844 484 -692 
Q 603 -541 603 -63 
L 603 3500 
z
M 603 4863 
L 1178 4863 
L 1178 4134 
L 603 4134 
L 603 4863 
z
" transform="scale(0.015625)"/>
       <path id="DejaVuSans-63" d="M 3122 3366 
L 3122 2828 
Q 2878 2963 2633 3030 
Q 2388 3097 2138 3097 
Q 1578 3097 1268 2742 
Q 959 2388 959 1747 
Q 959 1106 1268 751 
Q 1578 397 2138 397 
Q 2388 397 2633 464 
Q 2878 531 3122 666 
L 3122 134 
Q 2881 22 2623 -34 
Q 2366 -91 2075 -91 
Q 1284 -91 818 406 
Q 353 903 353 1747 
Q 353 2603 823 3093 
Q 1294 3584 2113 3584 
Q 2378 3584 2631 3529 
Q 2884 3475 3122 3366 
z
" transform="scale(0.015625)"/>
       <path id="DejaVuSans-74" d="M 1172 4494 
L 1172 3500 
L 2356 3500 
L 2356 3053 
L 1172 3053 
L 1172 1153 
Q 1172 725 1289 603 
Q 1406 481 1766 481 
L 2356 481 
L 2356 0 
L 1766 0 
Q 1100 0 847 248 
Q 594 497 594 1153 
L 594 3053 
L 172 3053 
L 172 3500 
L 594 3500 
L 594 4494 
L 1172 4494 
z
" transform="scale(0.015625)"/>
       <path id="DejaVuSans-69" d="M 603 3500 
L 1178 3500 
L 1178 0 
L 603 0 
L 603 3500 
z
M 603 4863 
L 1178 4863 
L 1178 4134 
L 603 4134 
L 603 4863 
z
" transform="scale(0.015625)"/>
       <path id="DejaVuSans-6f" d="M 1959 3097 
Q 1497 3097 1228 2736 
Q 959 2375 959 1747 
Q 959 1119 1226 758 
Q 1494 397 1959 397 
Q 2419 397 2687 759 
Q 2956 1122 2956 1747 
Q 2956 2369 2687 2733 
Q 2419 3097 1959 3097 
z
M 1959 3584 
Q 2709 3584 3137 3096 
Q 3566 2609 3566 1747 
Q 3566 888 3137 398 
Q 2709 -91 1959 -91 
Q 1206 -91 779 398 
Q 353 888 353 1747 
Q 353 2609 779 3096 
Q 1206 3584 1959 3584 
z
" transform="scale(0.015625)"/>
       <path id="DejaVuSans-6e" d="M 3513 2113 
L 3513 0 
L 2938 0 
L 2938 2094 
Q 2938 2591 2744 2837 
Q 2550 3084 2163 3084 
Q 1697 3084 1428 2787 
Q 1159 2491 1159 1978 
L 1159 0 
L 581 0 
L 581 3500 
L 1159 3500 
L 1159 2956 
Q 1366 3272 1645 3428 
Q 1925 3584 2291 3584 
Q 2894 3584 3203 3211 
Q 3513 2838 3513 2113 
z
" transform="scale(0.015625)"/>
       <path id="DejaVuSans-28" d="M 1984 4856 
Q 1566 4138 1362 3434 
Q 1159 2731 1159 2009 
Q 1159 1288 1364 580 
Q 1569 -128 1984 -844 
L 1484 -844 
Q 1016 -109 783 600 
Q 550 1309 550 2009 
Q 550 2706 781 3412 
Q 1013 4119 1484 4856 
L 1984 4856 
z
" transform="scale(0.015625)"/>
       <path id="DejaVuSans-2d" d="M 313 2009 
L 1997 2009 
L 1997 1497 
L 313 1497 
L 313 2009 
z
" transform="scale(0.015625)"/>
       <path id="DejaVuSans-29" d="M 513 4856 
L 1013 4856 
Q 1481 4119 1714 3412 
Q 1947 2706 1947 2009 
Q 1947 1309 1714 600 
Q 1481 -109 1013 -844 
L 513 -844 
Q 928 -128 1133 580 
Q 1338 1288 1338 2009 
Q 1338 2731 1133 3434 
Q 928 4138 513 4856 
z
" transform="scale(0.015625)"/>
      </defs>
      <use xlink:href="#DejaVuSans-4d"/>
      <use xlink:href="#DejaVuSans-65" x="86.279297"/>
      <use xlink:href="#DejaVuSans-61" x="147.802734"/>
      <use xlink:href="#DejaVuSans-73" x="209.082031"/>
      <use xlink:href="#DejaVuSans-75" x="261.181641"/>
      <use xlink:href="#DejaVuSans-72" x="324.560547"/>
      <use xlink:href="#DejaVuSans-65" x="363.423828"/>
      <use xlink:href="#DejaVuSans-64" x="424.947266"/>
      <use xlink:href="#DejaVuSans-20" x="488.423828"/>
      <use xlink:href="#DejaVuSans-72" x="520.210938"/>
      <use xlink:href="#DejaVuSans-65" x="559.074219"/>
      <use xlink:href="#DejaVuSans-6a" x="620.597656"/>
      <use xlink:href="#DejaVuSans-65" x="648.380859"/>
      <use xlink:href="#DejaVuSans-63" x="709.904297"/>
      <use xlink:href="#DejaVuSans-74" x="764.884766"/>
      <use xlink:href="#DejaVuSans-69" x="804.09375"/>
      <use xlink:href="#DejaVuSans-6f" x="831.876953"/>
      <use xlink:href="#DejaVuSans-6e" x="893.058594"/>
      <use xlink:href="#DejaVuSans-20" x="956.4375"/>
      <use xlink:href="#DejaVuSans-28" x="988.224609"/>
      <use xlink:href="#DejaVuSans-2d" x="1027.238281"/>
      <use xlink:href="#DejaVuSans-29" x="1063.322266"/>
     </g>
    </g>
   </g>
   <g id="matplotlib.axis_2">
    <g id="ytick_1">
     <g id="line2d_7">
      <defs>
       <path id="m75363479bb" d="M 0 0 
L -3.5 0 
" style="stroke: #000000; stroke-width: 0.8"/>
      </defs>
      <g>
       <use xlink:href="#m75363479bb" x="47.38125" y="390.84375" style="stroke: #000000; stroke-width: 0.8"/>
      </g>
     </g>
     <g id="text_8">
      <!-- 0.0 -->
      <g transform="translate(24.478125 394.642969)scale(0.1 -0.1)">
       <use xlink:href="#DejaVuSans-30"/>
       <use xlink:href="#DejaVuSans-2e" x="63.623047"/>
       <use xlink:href="#DejaVuSans-30" x="95.410156"/>
      </g>
     </g>
    </g>
    <g id="ytick_2">
     <g id="line2d_8">
      <g>
       <use xlink:href="#m75363479bb" x="47.38125" y="318.454464" style="stroke: #000000; stroke-width: 0.8"/>
      </g>
     </g>
     <g id="text_9">
      <!-- 0.2 -->
      <g transform="translate(24.478125 322.253683)scale(0.1 -0.1)">
       <use xlink:href="#DejaVuSans-30"/>
       <use xlink:href="#DejaVuSans-2e" x="63.623047"/>
       <use xlink:href="#DejaVuSans-32" x="95.410156"/>
      </g>
     </g>
    </g>
    <g id="ytick_3">
     <g id="line2d_9">
      <g>
       <use xlink:href="#m75363479bb" x="47.38125" y="246.065179" style="stroke: #000000; stroke-width: 0.8"/>
      </g>
     </g>
     <g id="text_10">
      <!-- 0.4 -->
      <g transform="translate(24.478125 249.864397)scale(0.1 -0.1)">
       <use xlink:href="#DejaVuSans-30"/>
       <use xlink:href="#DejaVuSans-2e" x="63.623047"/>
       <use xlink:href="#DejaVuSans-34" x="95.410156"/>
      </g>
     </g>
    </g>
    <g id="ytick_4">
     <g id="line2d_10">
      <g>
       <use xlink:href="#m75363479bb" x="47.38125" y="173.675893" style="stroke: #000000; stroke-width: 0.8"/>
      </g>
     </g>
     <g id="text_11">
      <!-- 0.6 -->
      <g transform="translate(24.478125 177.475112)scale(0.1 -0.1)">
       <use xlink:href="#DejaVuSans-30"/>
       <use xlink:href="#DejaVuSans-2e" x="63.623047"/>
       <use xlink:href="#DejaVuSans-36" x="95.410156"/>
      </g>
     </g>
    </g>
    <g id="ytick_5">
     <g id="line2d_11">
      <g>
       <use xlink:href="#m75363479bb" x="47.38125" y="101.286607" style="stroke: #000000; stroke-width: 0.8"/>
      </g>
     </g>
     <g id="text_12">
      <!-- 0.8 -->
      <g transform="translate(24.478125 105.085826)scale(0.1 -0.1)">
       <use xlink:href="#DejaVuSans-30"/>
       <use xlink:href="#DejaVuSans-2e" x="63.623047"/>
       <use xlink:href="#DejaVuSans-38" x="95.410156"/>
      </g>
     </g>
    </g>
    <g id="ytick_6">
     <g id="line2d_12">
      <g>
       <use xlink:href="#m75363479bb" x="47.38125" y="28.897321" style="stroke: #000000; stroke-width: 0.8"/>
      </g>
     </g>
     <g id="text_13">
      <!-- 1.0 -->
      <g transform="translate(24.478125 32.69654)scale(0.1 -0.1)">
       <use xlink:href="#DejaVuSans-31"/>
       <use xlink:href="#DejaVuSans-2e" x="63.623047"/>
       <use xlink:href="#DejaVuSans-30" x="95.410156"/>
      </g>
     </g>
    </g>
    <g id="text_14">
     <!-- Predicted rejection (-) -->
     <g transform="translate(18.398438 254.9875)rotate(-90)scale(0.1 -0.1)">
      <defs>
       <path id="DejaVuSans-50" d="M 1259 4147 
L 1259 2394 
L 2053 2394 
Q 2494 2394 2734 2622 
Q 2975 2850 2975 3272 
Q 2975 3691 2734 3919 
Q 2494 4147 2053 4147 
L 1259 4147 
z
M 628 4666 
L 2053 4666 
Q 2838 4666 3239 4311 
Q 3641 3956 3641 3272 
Q 3641 2581 3239 2228 
Q 2838 1875 2053 1875 
L 1259 1875 
L 1259 0 
L 628 0 
L 628 4666 
z
" transform="scale(0.015625)"/>
      </defs>
      <use xlink:href="#DejaVuSans-50"/>
      <use xlink:href="#DejaVuSans-72" x="58.552734"/>
      <use xlink:href="#DejaVuSans-65" x="97.416016"/>
      <use xlink:href="#DejaVuSans-64" x="158.939453"/>
      <use xlink:href="#DejaVuSans-69" x="222.416016"/>
      <use xlink:href="#DejaVuSans-63" x="250.199219"/>
      <use xlink:href="#DejaVuSans-74" x="305.179688"/>
      <use xlink:href="#DejaVuSans-65" x="344.388672"/>
      <use xlink:href="#DejaVuSans-64" x="405.912109"/>
      <use xlink:href="#DejaVuSans-20" x="469.388672"/>
      <use xlink:href="#DejaVuSans-72" x="501.175781"/>
      <use xlink:href="#DejaVuSans-65" x="540.039062"/>
      <use xlink:href="#DejaVuSans-6a" x="601.5625"/>
      <use xlink:href="#DejaVuSans-65" x="629.345703"/>
      <use xlink:href="#DejaVuSans-63" x="690.869141"/>
      <use xlink:href="#DejaVuSans-74" x="745.849609"/>
      <use xlink:href="#DejaVuSans-69" x="785.058594"/>
      <use xlink:href="#DejaVuSans-6f" x="812.841797"/>
      <use xlink:href="#DejaVuSans-6e" x="874.023438"/>
      <use xlink:href="#DejaVuSans-20" x="937.402344"/>
      <use xlink:href="#DejaVuSans-28" x="969.189453"/>
      <use xlink:href="#DejaVuSans-2d" x="1008.203125"/>
      <use xlink:href="#DejaVuSans-29" x="1044.287109"/>
     </g>
    </g>
   </g>
   <g id="line2d_13">
    <path d="M 289.473393 149.482347 
L 399.838929 63.533201 
L 360.676964 94.031285 
L 332.195536 116.21171 
L 401.975036 61.86967 
L 393.074589 68.801052 
L 403.399107 60.760648 
L 246.75125 182.752984 
L 399.838929 63.533201 
L 391.650518 69.910073 
L 403.399107 60.760648 
L 367.797321 88.486179 
L 385.598214 74.623414 
L 399.838929 63.533201 
L 399.838929 63.533201 
L 367.797321 88.486179 
L 382.038036 77.395967 
L 403.399107 60.760648 
L 392.718571 69.078308 
L 396.27875 66.305754 
L 385.598214 74.623414 
L 396.27875 66.305754 
L 374.917679 82.941073 
L 371.3575 85.713626 
L 382.038036 77.395967 
L 396.27875 66.305754 
L 296.59375 143.937241 
L 389.158393 71.850861 
L 392.718571 69.078308 
L 385.598214 74.623414 
L 382.038036 77.395967 
L 392.718571 69.078308 
L 392.718571 69.078308 
L 389.158393 71.850861 
L 392.718571 69.078308 
L 382.038036 77.395967 
L 389.158393 71.850861 
L 385.598214 74.623414 
L 389.158393 71.850861 
L 385.598214 74.623414 
L 385.598214 74.623414 
L 360.676964 94.031285 
L 389.158393 71.850861 
L 399.838929 63.533201 
L 204.705541 215.496836 
L 313.5402 130.739888 
L 351.491704 101.184472 
L 376.199343 81.942954 
L 372.389952 84.909586 
L 365.554409 90.232888 
L 347.112684 104.594712 
L 232.79535 193.621392 
L 249.528189 180.590392 
L 262.70085 170.331946 
L 272.66935 162.568797 
L 290.790659 148.456502 
L 349.4268 102.792553 
L 344.300143 106.785029 
L 263.6977 169.555631 
L 111.464464 288.110001 
L 257.431786 174.435325 
L 328.635357 118.984263 
L 367.797321 88.486179 
L 328.635357 118.984263 
L 349.996429 102.348944 
L 321.515 124.529369 
L 243.191071 185.525537 
L 268.112321 166.117665 
L 278.792857 157.800006 
L 285.913214 152.2549 
L 296.59375 143.937241 
L 332.195536 116.21171 
L 335.755714 113.439157 
L 264.552143 168.890218 
L 239.630893 188.29809 
L 168.427321 243.749151 
L 271.6725 163.345112 
L 310.834464 132.847028 
L 371.3575 85.713626 
L 360.676964 94.031285 
L 399.838929 63.533201 
L 332.195536 116.21171 
L 371.3575 85.713626 
L 382.038036 77.395967 
L 389.158393 71.850861 
L 392.718571 69.078308 
L 396.27875 66.305754 
L 392.718571 69.078308 
L 346.43625 105.121498 
L 293.033571 146.709794 
L 139.945893 265.929576 
L 207.589286 213.251068 
L 239.630893 188.29809 
L 275.232679 160.572559 
L 289.473393 149.482347 
L 396.27875 66.305754 
L 278.792857 157.800006 
L 325.075179 121.756816 
L 349.996429 102.348944 
L 367.797321 88.486179 
L 378.477857 80.16852 
L 389.158393 71.850861 
L 389.158393 71.850861 
L 275.232679 160.572559 
L 189.788393 227.113833 
L 125.705179 277.019788 
L 61.621964 326.925744 
L 97.22375 299.200213 
L 68.742321 321.380638 
L 115.024643 285.337448 
L 186.228214 229.886386 
L 75.862679 315.835532 
L 86.543214 307.517872 
L 93.663571 301.972766 
L 104.344107 293.655107 
L 107.904286 290.882554 
L 125.705179 277.019788 
L 132.825536 271.474682 
L 232.510536 193.843196 
L 228.950357 196.615749 
" clip-path="url(#p95e6a04643)" style="fill: none; stroke: #1f77b4; stroke-width: 1.5; stroke-linecap: square"/>
   </g>
   <g id="patch_3">
    <path d="M 47.38125 390.84375 
L 47.38125 10.8 
" style="fill: none; stroke: #000000; stroke-width: 0.8; stroke-linejoin: miter; stroke-linecap: square"/>
   </g>
   <g id="patch_4">
    <path d="M 47.38125 390.84375 
L 421.2 390.84375 
" style="fill: none; stroke: #000000; stroke-width: 0.8; stroke-linejoin: miter; stroke-linecap: square"/>
   </g>
   <g id="text_15">
    <!-- $y=0.766\;x+0.146$ -->
    <g transform="translate(66.072188 26.942344)scale(0.1 -0.1)">
     <defs>
      <path id="DejaVuSans-Oblique-79" d="M 1588 -325 
Q 1188 -997 936 -1164 
Q 684 -1331 294 -1331 
L -159 -1331 
L -63 -850 
L 269 -850 
Q 509 -850 678 -719 
Q 847 -588 1056 -206 
L 1234 128 
L 459 3500 
L 1069 3500 
L 1650 819 
L 3256 3500 
L 3859 3500 
L 1588 -325 
z
" transform="scale(0.015625)"/>
      <path id="DejaVuSans-3d" d="M 678 2906 
L 4684 2906 
L 4684 2381 
L 678 2381 
L 678 2906 
z
M 678 1631 
L 4684 1631 
L 4684 1100 
L 678 1100 
L 678 1631 
z
" transform="scale(0.015625)"/>
      <path id="DejaVuSans-37" d="M 525 4666 
L 3525 4666 
L 3525 4397 
L 1831 0 
L 1172 0 
L 2766 4134 
L 525 4134 
L 525 4666 
z
" transform="scale(0.015625)"/>
      <path id="DejaVuSans-Oblique-78" d="M 3841 3500 
L 2234 1784 
L 3219 0 
L 2559 0 
L 1819 1388 
L 531 0 
L -166 0 
L 1556 1844 
L 641 3500 
L 1300 3500 
L 1972 2234 
L 3144 3500 
L 3841 3500 
z
" transform="scale(0.015625)"/>
      <path id="DejaVuSans-2b" d="M 2944 4013 
L 2944 2272 
L 4684 2272 
L 4684 1741 
L 2944 1741 
L 2944 0 
L 2419 0 
L 2419 1741 
L 678 1741 
L 678 2272 
L 2419 2272 
L 2419 4013 
L 2944 4013 
z
" transform="scale(0.015625)"/>
     </defs>
     <use xlink:href="#DejaVuSans-Oblique-79" transform="translate(0 0.78125)"/>
     <use xlink:href="#DejaVuSans-3d" transform="translate(78.662109 0.78125)"/>
     <use xlink:href="#DejaVuSans-30" transform="translate(181.933594 0.78125)"/>
     <use xlink:href="#DejaVuSans-2e" transform="translate(245.556641 0.78125)"/>
     <use xlink:href="#DejaVuSans-37" transform="translate(269.59375 0.78125)"/>
     <use xlink:href="#DejaVuSans-36" transform="translate(333.216797 0.78125)"/>
     <use xlink:href="#DejaVuSans-36" transform="translate(396.839844 0.78125)"/>
     <use xlink:href="#DejaVuSans-Oblique-78" transform="translate(487.522026 0.78125)"/>
     <use xlink:href="#DejaVuSans-2b" transform="translate(566.184136 0.78125)"/>
     <use xlink:href="#DejaVuSans-30" transform="translate(669.45562 0.78125)"/>
     <use xlink:href="#DejaVuSans-2e" transform="translate(733.078667 0.78125)"/>
     <use xlink:href="#DejaVuSans-31" transform="translate(764.865776 0.78125)"/>
     <use xlink:href="#DejaVuSans-34" transform="translate(828.488823 0.78125)"/>
     <use xlink:href="#DejaVuSans-36" transform="translate(892.11187 0.78125)"/>
    </g>
    <!-- $R^2 = 0.745$ -->
    <g transform="translate(66.072188 38.160469)scale(0.1 -0.1)">
     <defs>
      <path id="DejaVuSans-Oblique-52" d="M 1613 4147 
L 1294 2491 
L 2106 2491 
Q 2584 2491 2879 2755 
Q 3175 3019 3175 3444 
Q 3175 3784 2976 3965 
Q 2778 4147 2406 4147 
L 1613 4147 
z
M 2772 2241 
Q 2972 2194 3105 2009 
Q 3238 1825 3413 1275 
L 3809 0 
L 3144 0 
L 2778 1197 
Q 2638 1659 2453 1815 
Q 2269 1972 1888 1972 
L 1191 1972 
L 806 0 
L 172 0 
L 1081 4666 
L 2503 4666 
Q 3150 4666 3495 4373 
Q 3841 4081 3841 3531 
Q 3841 3044 3547 2687 
Q 3253 2331 2772 2241 
z
" transform="scale(0.015625)"/>
      <path id="DejaVuSans-35" d="M 691 4666 
L 3169 4666 
L 3169 4134 
L 1269 4134 
L 1269 2991 
Q 1406 3038 1543 3061 
Q 1681 3084 1819 3084 
Q 2600 3084 3056 2656 
Q 3513 2228 3513 1497 
Q 3513 744 3044 326 
Q 2575 -91 1722 -91 
Q 1428 -91 1123 -41 
Q 819 9 494 109 
L 494 744 
Q 775 591 1075 516 
Q 1375 441 1709 441 
Q 2250 441 2565 725 
Q 2881 1009 2881 1497 
Q 2881 1984 2565 2268 
Q 2250 2553 1709 2553 
Q 1456 2553 1204 2497 
Q 953 2441 691 2322 
L 691 4666 
z
" transform="scale(0.015625)"/>
     </defs>
     <use xlink:href="#DejaVuSans-Oblique-52" transform="translate(0 0.765625)"/>
     <use xlink:href="#DejaVuSans-32" transform="translate(76.499193 39.046875)scale(0.7)"/>
     <use xlink:href="#DejaVuSans-3d" transform="translate(143.252122 0.765625)"/>
     <use xlink:href="#DejaVuSans-30" transform="translate(246.523607 0.765625)"/>
     <use xlink:href="#DejaVuSans-2e" transform="translate(310.146654 0.765625)"/>
     <use xlink:href="#DejaVuSans-37" transform="translate(334.183763 0.765625)"/>
     <use xlink:href="#DejaVuSans-34" transform="translate(397.80681 0.765625)"/>
     <use xlink:href="#DejaVuSans-35" transform="translate(461.429857 0.765625)"/>
    </g>
   </g>
   <g id="legend_1">
    <g id="patch_5">
     <path d="M 249.885937 385.84375 
L 414.2 385.84375 
Q 416.2 385.84375 416.2 383.84375 
L 416.2 252.740625 
Q 416.2 250.740625 414.2 250.740625 
L 249.885937 250.740625 
Q 247.885937 250.740625 247.885937 252.740625 
L 247.885937 383.84375 
Q 247.885937 385.84375 249.885937 385.84375 
z
" style="fill: #ffffff; opacity: 0.8; stroke: #cccccc; stroke-linejoin: miter"/>
    </g>
    <g id="PathCollection_10">
     <g>
      <use xlink:href="#m039e83b813" x="261.885937" y="259.714063" style="fill: #1f77b4; stroke: #1f77b4"/>
     </g>
    </g>
    <g id="text_16">
     <!-- Ethanol -->
     <g transform="translate(279.885937 262.339063)scale(0.1 -0.1)">
      <defs>
       <path id="DejaVuSans-45" d="M 628 4666 
L 3578 4666 
L 3578 4134 
L 1259 4134 
L 1259 2753 
L 3481 2753 
L 3481 2222 
L 1259 2222 
L 1259 531 
L 3634 531 
L 3634 0 
L 628 0 
L 628 4666 
z
" transform="scale(0.015625)"/>
       <path id="DejaVuSans-68" d="M 3513 2113 
L 3513 0 
L 2938 0 
L 2938 2094 
Q 2938 2591 2744 2837 
Q 2550 3084 2163 3084 
Q 1697 3084 1428 2787 
Q 1159 2491 1159 1978 
L 1159 0 
L 581 0 
L 581 4863 
L 1159 4863 
L 1159 2956 
Q 1366 3272 1645 3428 
Q 1925 3584 2291 3584 
Q 2894 3584 3203 3211 
Q 3513 2838 3513 2113 
z
" transform="scale(0.015625)"/>
       <path id="DejaVuSans-6c" d="M 603 4863 
L 1178 4863 
L 1178 0 
L 603 0 
L 603 4863 
z
" transform="scale(0.015625)"/>
      </defs>
      <use xlink:href="#DejaVuSans-45"/>
      <use xlink:href="#DejaVuSans-74" x="63.183594"/>
      <use xlink:href="#DejaVuSans-68" x="102.392578"/>
      <use xlink:href="#DejaVuSans-61" x="165.771484"/>
      <use xlink:href="#DejaVuSans-6e" x="227.050781"/>
      <use xlink:href="#DejaVuSans-6f" x="290.429688"/>
      <use xlink:href="#DejaVuSans-6c" x="351.611328"/>
     </g>
    </g>
    <g id="PathCollection_11">
     <g>
      <use xlink:href="#m06552699f3" x="261.885937" y="274.392188" style="fill: #ff7f0e; stroke: #ff7f0e"/>
     </g>
    </g>
    <g id="text_17">
     <!-- 2-Propanol -->
     <g transform="translate(279.885937 277.017188)scale(0.1 -0.1)">
      <defs>
       <path id="DejaVuSans-70" d="M 1159 525 
L 1159 -1331 
L 581 -1331 
L 581 3500 
L 1159 3500 
L 1159 2969 
Q 1341 3281 1617 3432 
Q 1894 3584 2278 3584 
Q 2916 3584 3314 3078 
Q 3713 2572 3713 1747 
Q 3713 922 3314 415 
Q 2916 -91 2278 -91 
Q 1894 -91 1617 61 
Q 1341 213 1159 525 
z
M 3116 1747 
Q 3116 2381 2855 2742 
Q 2594 3103 2138 3103 
Q 1681 3103 1420 2742 
Q 1159 2381 1159 1747 
Q 1159 1113 1420 752 
Q 1681 391 2138 391 
Q 2594 391 2855 752 
Q 3116 1113 3116 1747 
z
" transform="scale(0.015625)"/>
      </defs>
      <use xlink:href="#DejaVuSans-32"/>
      <use xlink:href="#DejaVuSans-2d" x="63.623047"/>
      <use xlink:href="#DejaVuSans-50" x="99.707031"/>
      <use xlink:href="#DejaVuSans-72" x="158.259766"/>
      <use xlink:href="#DejaVuSans-6f" x="197.123047"/>
      <use xlink:href="#DejaVuSans-70" x="258.304688"/>
      <use xlink:href="#DejaVuSans-61" x="321.78125"/>
      <use xlink:href="#DejaVuSans-6e" x="383.060547"/>
      <use xlink:href="#DejaVuSans-6f" x="446.439453"/>
      <use xlink:href="#DejaVuSans-6c" x="507.621094"/>
     </g>
    </g>
    <g id="PathCollection_12">
     <g>
      <use xlink:href="#m7bfdb49d2d" x="261.885937" y="289.070313" style="fill: #2ca02c; stroke: #2ca02c"/>
     </g>
    </g>
    <g id="text_18">
     <!-- 2-Methyl tetrahydrofurane -->
     <g transform="translate(279.885937 291.695313)scale(0.1 -0.1)">
      <defs>
       <path id="DejaVuSans-79" d="M 2059 -325 
Q 1816 -950 1584 -1140 
Q 1353 -1331 966 -1331 
L 506 -1331 
L 506 -850 
L 844 -850 
Q 1081 -850 1212 -737 
Q 1344 -625 1503 -206 
L 1606 56 
L 191 3500 
L 800 3500 
L 1894 763 
L 2988 3500 
L 3597 3500 
L 2059 -325 
z
" transform="scale(0.015625)"/>
       <path id="DejaVuSans-66" d="M 2375 4863 
L 2375 4384 
L 1825 4384 
Q 1516 4384 1395 4259 
Q 1275 4134 1275 3809 
L 1275 3500 
L 2222 3500 
L 2222 3053 
L 1275 3053 
L 1275 0 
L 697 0 
L 697 3053 
L 147 3053 
L 147 3500 
L 697 3500 
L 697 3744 
Q 697 4328 969 4595 
Q 1241 4863 1831 4863 
L 2375 4863 
z
" transform="scale(0.015625)"/>
      </defs>
      <use xlink:href="#DejaVuSans-32"/>
      <use xlink:href="#DejaVuSans-2d" x="63.623047"/>
      <use xlink:href="#DejaVuSans-4d" x="99.707031"/>
      <use xlink:href="#DejaVuSans-65" x="185.986328"/>
      <use xlink:href="#DejaVuSans-74" x="247.509766"/>
      <use xlink:href="#DejaVuSans-68" x="286.71875"/>
      <use xlink:href="#DejaVuSans-79" x="350.097656"/>
      <use xlink:href="#DejaVuSans-6c" x="409.277344"/>
      <use xlink:href="#DejaVuSans-20" x="437.060547"/>
      <use xlink:href="#DejaVuSans-74" x="468.847656"/>
      <use xlink:href="#DejaVuSans-65" x="508.056641"/>
      <use xlink:href="#DejaVuSans-74" x="569.580078"/>
      <use xlink:href="#DejaVuSans-72" x="608.789062"/>
      <use xlink:href="#DejaVuSans-61" x="649.902344"/>
      <use xlink:href="#DejaVuSans-68" x="711.181641"/>
      <use xlink:href="#DejaVuSans-79" x="774.560547"/>
      <use xlink:href="#DejaVuSans-64" x="833.740234"/>
      <use xlink:href="#DejaVuSans-72" x="897.216797"/>
      <use xlink:href="#DejaVuSans-6f" x="936.080078"/>
      <use xlink:href="#DejaVuSans-66" x="997.261719"/>
      <use xlink:href="#DejaVuSans-75" x="1032.466797"/>
      <use xlink:href="#DejaVuSans-72" x="1095.845703"/>
      <use xlink:href="#DejaVuSans-61" x="1136.958984"/>
      <use xlink:href="#DejaVuSans-6e" x="1198.238281"/>
      <use xlink:href="#DejaVuSans-65" x="1261.617188"/>
     </g>
    </g>
    <g id="PathCollection_13">
     <g>
      <use xlink:href="#m19d6834ea1" x="261.885937" y="303.748438" style="fill: #d62728; stroke: #d62728"/>
     </g>
    </g>
    <g id="text_19">
     <!-- Acetone -->
     <g transform="translate(279.885937 306.373438)scale(0.1 -0.1)">
      <defs>
       <path id="DejaVuSans-41" d="M 2188 4044 
L 1331 1722 
L 3047 1722 
L 2188 4044 
z
M 1831 4666 
L 2547 4666 
L 4325 0 
L 3669 0 
L 3244 1197 
L 1141 1197 
L 716 0 
L 50 0 
L 1831 4666 
z
" transform="scale(0.015625)"/>
      </defs>
      <use xlink:href="#DejaVuSans-41"/>
      <use xlink:href="#DejaVuSans-63" x="66.658203"/>
      <use xlink:href="#DejaVuSans-65" x="121.638672"/>
      <use xlink:href="#DejaVuSans-74" x="183.162109"/>
      <use xlink:href="#DejaVuSans-6f" x="222.371094"/>
      <use xlink:href="#DejaVuSans-6e" x="283.552734"/>
      <use xlink:href="#DejaVuSans-65" x="346.931641"/>
     </g>
    </g>
    <g id="PathCollection_14">
     <g>
      <use xlink:href="#m6aab09a2fd" x="261.885937" y="318.426563" style="fill: #9467bd; stroke: #9467bd"/>
     </g>
    </g>
    <g id="text_20">
     <!-- Tetrahydrofuran -->
     <g transform="translate(279.885937 321.051563)scale(0.1 -0.1)">
      <defs>
       <path id="DejaVuSans-54" d="M -19 4666 
L 3928 4666 
L 3928 4134 
L 2272 4134 
L 2272 0 
L 1638 0 
L 1638 4134 
L -19 4134 
L -19 4666 
z
" transform="scale(0.015625)"/>
      </defs>
      <use xlink:href="#DejaVuSans-54"/>
      <use xlink:href="#DejaVuSans-65" x="44.083984"/>
      <use xlink:href="#DejaVuSans-74" x="105.607422"/>
      <use xlink:href="#DejaVuSans-72" x="144.816406"/>
      <use xlink:href="#DejaVuSans-61" x="185.929688"/>
      <use xlink:href="#DejaVuSans-68" x="247.208984"/>
      <use xlink:href="#DejaVuSans-79" x="310.587891"/>
      <use xlink:href="#DejaVuSans-64" x="369.767578"/>
      <use xlink:href="#DejaVuSans-72" x="433.244141"/>
      <use xlink:href="#DejaVuSans-6f" x="472.107422"/>
      <use xlink:href="#DejaVuSans-66" x="533.289062"/>
      <use xlink:href="#DejaVuSans-75" x="568.494141"/>
      <use xlink:href="#DejaVuSans-72" x="631.873047"/>
      <use xlink:href="#DejaVuSans-61" x="672.986328"/>
      <use xlink:href="#DejaVuSans-6e" x="734.265625"/>
     </g>
    </g>
    <g id="PathCollection_15">
     <g>
      <use xlink:href="#m93103fec4a" x="261.885937" y="333.104688" style="fill: #c49c94; stroke: #c49c94; stroke-width: 1.5"/>
     </g>
    </g>
    <g id="text_21">
     <!-- Toluene -->
     <g transform="translate(279.885937 335.729688)scale(0.1 -0.1)">
      <use xlink:href="#DejaVuSans-54"/>
      <use xlink:href="#DejaVuSans-6f" x="44.083984"/>
      <use xlink:href="#DejaVuSans-6c" x="105.265625"/>
      <use xlink:href="#DejaVuSans-75" x="133.048828"/>
      <use xlink:href="#DejaVuSans-65" x="196.427734"/>
      <use xlink:href="#DejaVuSans-6e" x="257.951172"/>
      <use xlink:href="#DejaVuSans-65" x="321.330078"/>
     </g>
    </g>
    <g id="PathCollection_16">
     <g>
      <use xlink:href="#m605e9f1c72" x="261.885937" y="347.782813" style="fill: #f7b6d2; stroke: #f7b6d2; stroke-width: 1.5"/>
     </g>
    </g>
    <g id="text_22">
     <!-- Ethyl acetate -->
     <g transform="translate(279.885937 350.407813)scale(0.1 -0.1)">
      <use xlink:href="#DejaVuSans-45"/>
      <use xlink:href="#DejaVuSans-74" x="63.183594"/>
      <use xlink:href="#DejaVuSans-68" x="102.392578"/>
      <use xlink:href="#DejaVuSans-79" x="165.771484"/>
      <use xlink:href="#DejaVuSans-6c" x="224.951172"/>
      <use xlink:href="#DejaVuSans-20" x="252.734375"/>
      <use xlink:href="#DejaVuSans-61" x="284.521484"/>
      <use xlink:href="#DejaVuSans-63" x="345.800781"/>
      <use xlink:href="#DejaVuSans-65" x="400.78125"/>
      <use xlink:href="#DejaVuSans-74" x="462.304688"/>
      <use xlink:href="#DejaVuSans-61" x="501.513672"/>
      <use xlink:href="#DejaVuSans-74" x="562.792969"/>
      <use xlink:href="#DejaVuSans-65" x="602.001953"/>
     </g>
    </g>
    <g id="PathCollection_17">
     <g>
      <use xlink:href="#m137108bcda" x="261.885937" y="362.460938" style="fill: #c7c7c7; stroke: #c7c7c7; stroke-width: 1.5"/>
     </g>
    </g>
    <g id="text_23">
     <!-- Acetonitrile -->
     <g transform="translate(279.885937 365.085938)scale(0.1 -0.1)">
      <use xlink:href="#DejaVuSans-41"/>
      <use xlink:href="#DejaVuSans-63" x="66.658203"/>
      <use xlink:href="#DejaVuSans-65" x="121.638672"/>
      <use xlink:href="#DejaVuSans-74" x="183.162109"/>
      <use xlink:href="#DejaVuSans-6f" x="222.371094"/>
      <use xlink:href="#DejaVuSans-6e" x="283.552734"/>
      <use xlink:href="#DejaVuSans-69" x="346.931641"/>
      <use xlink:href="#DejaVuSans-74" x="374.714844"/>
      <use xlink:href="#DejaVuSans-72" x="413.923828"/>
      <use xlink:href="#DejaVuSans-69" x="455.037109"/>
      <use xlink:href="#DejaVuSans-6c" x="482.820312"/>
      <use xlink:href="#DejaVuSans-65" x="510.603516"/>
     </g>
    </g>
    <g id="PathCollection_18">
     <g>
      <use xlink:href="#m0111b96231" x="261.885937" y="377.139063" style="fill: #dbdb8d; stroke: #dbdb8d; stroke-width: 1.5"/>
     </g>
    </g>
    <g id="text_24">
     <!-- Methyl ethyl ketone -->
     <g transform="translate(279.885937 379.764063)scale(0.1 -0.1)">
      <defs>
       <path id="DejaVuSans-6b" d="M 581 4863 
L 1159 4863 
L 1159 1991 
L 2875 3500 
L 3609 3500 
L 1753 1863 
L 3688 0 
L 2938 0 
L 1159 1709 
L 1159 0 
L 581 0 
L 581 4863 
z
" transform="scale(0.015625)"/>
      </defs>
      <use xlink:href="#DejaVuSans-4d"/>
      <use xlink:href="#DejaVuSans-65" x="86.279297"/>
      <use xlink:href="#DejaVuSans-74" x="147.802734"/>
      <use xlink:href="#DejaVuSans-68" x="187.011719"/>
      <use xlink:href="#DejaVuSans-79" x="250.390625"/>
      <use xlink:href="#DejaVuSans-6c" x="309.570312"/>
      <use xlink:href="#DejaVuSans-20" x="337.353516"/>
      <use xlink:href="#DejaVuSans-65" x="369.140625"/>
      <use xlink:href="#DejaVuSans-74" x="430.664062"/>
      <use xlink:href="#DejaVuSans-68" x="469.873047"/>
      <use xlink:href="#DejaVuSans-79" x="533.251953"/>
      <use xlink:href="#DejaVuSans-6c" x="592.431641"/>
      <use xlink:href="#DejaVuSans-20" x="620.214844"/>
      <use xlink:href="#DejaVuSans-6b" x="652.001953"/>
      <use xlink:href="#DejaVuSans-65" x="706.287109"/>
      <use xlink:href="#DejaVuSans-74" x="767.810547"/>
      <use xlink:href="#DejaVuSans-6f" x="807.019531"/>
      <use xlink:href="#DejaVuSans-6e" x="868.201172"/>
      <use xlink:href="#DejaVuSans-65" x="931.580078"/>
     </g>
    </g>
   </g>
  </g>
 </g>
 <defs>
  <clipPath id="p95e6a04643">
   <rect x="47.38125" y="10.8" width="373.81875" height="380.04375"/>
  </clipPath>
 </defs>
</svg>
